<?xml version="1.0" encoding="UTF-8"?>
<svg xmlns="http://www.w3.org/2000/svg" xmlns:xlink="http://www.w3.org/1999/xlink" width="94px" height="40px" viewBox="0 0 94 40" version="1.1">
<g id="surface1">
<path style=" stroke:none;fill-rule:nonzero;fill:rgb(0%,0%,0%);fill-opacity:1;" d="M 46.0625 5.855469 C 45.023438 6.210938 44.992188 6.394531 45.863281 6.878906 C 46.296875 7.109375 46.53125 7.449219 46.53125 7.847656 L 46.53125 8.460938 L 44.085938 7.4375 C 42.75 6.878906 41.542969 6.410156 41.410156 6.410156 C 40.738281 6.410156 41.410156 6.835938 43.851562 7.933594 L 46.53125 9.160156 L 46.53125 11.027344 L 44.757812 10.285156 C 43.21875 9.644531 42.816406 9.542969 41.644531 9.542969 C 40.574219 9.542969 40.105469 9.457031 39.335938 9.117188 C 38.699219 8.832031 38.261719 8.730469 38.027344 8.832031 C 37.792969 8.929688 37.828125 9.03125 38.09375 9.144531 C 38.765625 9.429688 38.53125 9.542969 37.226562 9.542969 C 35.71875 9.542969 34.414062 9.058594 34.679688 8.617188 C 35.050781 7.976562 32.90625 7.519531 31.632812 7.976562 C 31.03125 8.191406 30.964844 8.847656 31.535156 9.089844 C 31.769531 9.1875 32.40625 9.257812 32.972656 9.257812 C 33.675781 9.257812 34.3125 9.386719 34.816406 9.617188 C 35.550781 9.957031 35.785156 9.972656 39.132812 9.972656 L 42.648438 9.972656 L 44.589844 10.785156 L 46.53125 11.59375 L 46.53125 13.449219 L 44.691406 12.679688 C 43.351562 12.121094 42.847656 11.792969 42.847656 11.523438 C 42.847656 11.070312 42.078125 10.683594 41.140625 10.683594 C 40.4375 10.683594 39.167969 11.152344 39.167969 11.4375 C 39.167969 11.808594 40.203125 12.25 41.109375 12.25 C 41.8125 12.25 42.613281 12.492188 44.289062 13.21875 L 46.53125 14.1875 L 46.53125 20.910156 L 44.1875 21.027344 L 44.1875 14.515625 L 42.28125 13.660156 C 40.472656 12.847656 40.339844 12.820312 38.730469 12.820312 C 37.359375 12.820312 36.855469 12.75 36.121094 12.449219 C 35.050781 12.023438 34.078125 12.109375 35.015625 12.550781 C 35.585938 12.804688 35.519531 12.820312 33.273438 12.820312 C 31.066406 12.820312 30.863281 12.792969 29.859375 12.351562 C 29.15625 12.050781 28.855469 11.792969 28.957031 11.636719 C 29.257812 11.339844 28.621094 10.867188 27.785156 10.753906 C 27.351562 10.699219 26.746094 10.753906 26.277344 10.882812 C 24.738281 11.324219 25.507812 12.25 27.417969 12.25 C 28.019531 12.25 28.722656 12.421875 29.457031 12.75 L 30.597656 13.246094 L 39.703125 13.246094 L 41.476562 14.015625 C 42.914062 14.628906 43.21875 14.859375 43.117188 15.183594 L 43.015625 15.597656 L 36.65625 15.683594 L 35.148438 15.027344 C 33.777344 14.445312 32.804688 14.214844 32.804688 14.5 C 32.804688 14.574219 33.273438 14.800781 33.808594 15.027344 C 34.378906 15.257812 34.816406 15.484375 34.816406 15.554688 C 34.816406 15.613281 33.542969 15.667969 32.035156 15.667969 C 29.660156 15.667969 29.125 15.625 28.621094 15.382812 C 27.484375 14.84375 25.105469 15.199219 25.105469 15.910156 C 25.105469 16.195312 26.378906 16.667969 27.117188 16.667969 C 27.484375 16.667969 28.085938 16.539062 28.453125 16.382812 C 29.058594 16.125 29.558594 16.097656 33.039062 16.097656 L 36.921875 16.097656 L 36.152344 16.453125 C 35.683594 16.667969 34.980469 16.808594 34.480469 16.808594 C 32.804688 16.808594 31.867188 17.664062 33.007812 18.148438 C 34.179688 18.660156 36.152344 18.277344 36.152344 17.535156 C 36.152344 17.277344 36.554688 16.980469 37.425781 16.625 C 38.632812 16.125 38.796875 16.097656 40.941406 16.097656 L 43.183594 16.097656 L 43.117188 18.605469 L 43.015625 21.125 L 40.339844 21.453125 C 37.089844 21.867188 32.875 22.707031 30.128906 23.503906 C 29.023438 23.816406 28.121094 24.101562 28.121094 24.132812 C 28.121094 24.160156 29.59375 23.960938 31.398438 23.703125 C 35.484375 23.132812 40.40625 22.59375 44.320312 22.292969 C 47.769531 22.035156 54.765625 22.007812 57.308594 22.238281 C 59.183594 22.40625 63 23.121094 64.941406 23.675781 L 66.113281 24.003906 L 65.378906 23.5625 C 62.867188 22.066406 56.910156 20.796875 52.355469 20.796875 L 51.21875 20.796875 L 51.21875 16.097656 L 53.496094 16.097656 C 55.671875 16.097656 55.804688 16.109375 57.007812 16.636719 C 57.914062 17.023438 58.179688 17.25 58.046875 17.480469 C 57.8125 17.835938 58.917969 18.375 59.886719 18.375 C 60.824219 18.375 61.59375 17.992188 61.59375 17.535156 C 61.59375 17.035156 61.027344 16.808594 59.753906 16.808594 C 59.050781 16.808594 58.414062 16.679688 57.914062 16.453125 L 57.144531 16.097656 L 61.09375 16.097656 C 64.675781 16.097656 65.144531 16.125 65.8125 16.394531 C 66.816406 16.792969 68.191406 16.667969 68.660156 16.140625 C 69.394531 15.3125 66.851562 14.714844 65.445312 15.382812 C 64.875 15.65625 64.40625 15.667969 58.011719 15.667969 L 51.21875 15.667969 L 51.21875 15.128906 C 51.21875 14.714844 51.453125 14.488281 52.15625 14.203125 C 53.058594 13.832031 53.261719 13.816406 56.609375 13.816406 C 59.722656 13.816406 60.121094 13.847656 60.523438 14.101562 C 61.328125 14.671875 63.9375 14.300781 63.9375 13.632812 C 63.9375 13.304688 62.734375 12.820312 61.929688 12.820312 C 61.5625 12.820312 60.960938 12.949219 60.589844 13.105469 C 59.988281 13.363281 59.488281 13.390625 56.304688 13.390625 L 52.691406 13.390625 L 51.453125 13.929688 L 50.214844 14.472656 L 50.214844 20.796875 L 47.535156 20.796875 L 47.535156 12.878906 L 48.976562 12.277344 C 50.347656 11.695312 50.480469 11.679688 52.589844 11.679688 C 54.566406 11.679688 54.867188 11.722656 55.738281 12.109375 C 56.640625 12.519531 57.578125 12.664062 57.578125 12.421875 C 57.578125 12.351562 57.277344 12.179688 56.875 12.023438 C 56.171875 11.753906 56.238281 11.753906 61.628906 11.679688 C 65.546875 11.625 67.117188 11.566406 67.21875 11.425781 C 67.320312 11.296875 66.617188 11.253906 64.472656 11.253906 C 62.902344 11.253906 61.59375 11.195312 61.59375 11.140625 C 61.59375 10.882812 63.167969 10.398438 63.738281 10.484375 C 64.609375 10.625 65.949219 10.171875 65.949219 9.714844 C 65.949219 9.1875 65.378906 8.972656 64.039062 8.972656 C 62.867188 8.972656 62.132812 9.332031 62.332031 9.828125 C 62.398438 9.984375 61.898438 10.328125 61.09375 10.667969 L 59.789062 11.253906 L 49.746094 11.253906 L 48.640625 11.710938 L 47.535156 12.164062 L 47.535156 10.15625 L 49.34375 9.414062 C 50.449219 8.988281 51.484375 8.691406 51.953125 8.691406 C 52.390625 8.691406 53.292969 8.945312 54.128906 9.289062 C 55.132812 9.714844 55.671875 9.84375 55.9375 9.730469 C 56.171875 9.628906 56.003906 9.457031 55.402344 9.132812 C 54.566406 8.71875 54.566406 8.691406 55.167969 8.691406 C 55.535156 8.691406 56.003906 8.589844 56.238281 8.476562 C 56.472656 8.363281 57.144531 8.261719 57.710938 8.261719 C 59.019531 8.261719 59.585938 8.046875 59.585938 7.519531 C 59.585938 6.980469 58.214844 6.59375 57.078125 6.808594 C 56.304688 6.964844 55.601562 7.605469 56.039062 7.792969 C 56.140625 7.835938 56.070312 7.964844 55.871094 8.078125 C 55.601562 8.191406 54.699219 8.261719 53.125 8.261719 L 50.75 8.261719 L 49.140625 8.929688 L 47.535156 9.601562 L 47.535156 8.390625 C 47.535156 7.363281 47.636719 7.152344 48.207031 6.9375 C 49.109375 6.625 49.074219 6.054688 48.136719 5.785156 C 47.167969 5.5 47.132812 5.5 46.0625 5.855469 Z M 46.0625 5.855469 "/>
<path style=" stroke:none;fill-rule:nonzero;fill:rgb(0%,0%,0%);fill-opacity:1;" d="M 17.074219 28.5625 C 17.074219 28.875 17.207031 28.902344 18.914062 28.945312 L 20.753906 28.988281 L 18.746094 30.34375 C 16 32.195312 16 32.195312 19.917969 32.195312 C 23.097656 32.195312 23.097656 32.195312 23.097656 31.835938 C 23.097656 31.496094 22.996094 31.480469 21.089844 31.480469 L 19.082031 31.480469 L 21.089844 30.15625 C 22.195312 29.414062 23.097656 28.675781 23.097656 28.519531 C 23.097656 28.21875 22.929688 28.207031 20.085938 28.207031 C 17.105469 28.207031 17.074219 28.207031 17.074219 28.5625 Z M 17.074219 28.5625 "/>
<path style=" stroke:none;fill-rule:nonzero;fill:rgb(0%,0%,0%);fill-opacity:1;" d="M 61.261719 28.488281 C 61.261719 28.703125 61.496094 28.773438 62.097656 28.773438 C 62.699219 28.773438 62.933594 28.703125 62.933594 28.488281 C 62.933594 28.277344 62.699219 28.207031 62.097656 28.207031 C 61.496094 28.207031 61.261719 28.277344 61.261719 28.488281 Z M 61.261719 28.488281 "/>
<path style=" stroke:none;fill-rule:nonzero;fill:rgb(0%,0%,0%);fill-opacity:1;" d="M 26.246094 29.34375 C 25.039062 29.542969 24.4375 30.058594 24.4375 30.839844 C 24.4375 31.425781 24.605469 31.636719 25.207031 31.878906 C 26.277344 32.308594 27.484375 32.394531 28.957031 32.136719 C 30.027344 31.9375 30.160156 31.878906 29.792969 31.695312 C 29.492188 31.539062 29.058594 31.496094 28.253906 31.566406 C 27.148438 31.652344 26.109375 31.46875 26.109375 31.183594 C 26.109375 31.109375 27.015625 31.054688 28.121094 31.054688 C 30.464844 31.054688 30.730469 30.925781 30.128906 30.128906 C 29.894531 29.816406 29.359375 29.542969 28.789062 29.414062 C 27.71875 29.171875 27.28125 29.160156 26.246094 29.34375 Z M 28.453125 30.199219 C 28.789062 30.457031 28.722656 30.484375 27.449219 30.484375 C 26.546875 30.484375 26.109375 30.425781 26.109375 30.300781 C 26.109375 29.828125 27.886719 29.757812 28.453125 30.199219 Z M 28.453125 30.199219 "/>
<path style=" stroke:none;fill-rule:nonzero;fill:rgb(0%,0%,0%);fill-opacity:1;" d="M 34.679688 29.300781 C 34.546875 29.359375 33.945312 29.386719 33.308594 29.375 L 32.136719 29.332031 L 32.136719 32.195312 L 32.972656 32.195312 C 33.777344 32.195312 33.808594 32.164062 33.808594 31.125 C 33.808594 30.257812 33.910156 30.027344 34.347656 29.957031 C 35.519531 29.773438 35.988281 30.113281 36.085938 31.183594 C 36.1875 32.152344 36.222656 32.195312 36.992188 32.195312 C 37.792969 32.195312 37.828125 32.164062 37.828125 31.054688 C 37.828125 30.015625 37.726562 29.871094 36.992188 29.558594 C 36.222656 29.214844 35.183594 29.101562 34.679688 29.300781 Z M 34.679688 29.300781 "/>
<path style=" stroke:none;fill-rule:nonzero;fill:rgb(0%,0%,0%);fill-opacity:1;" d="M 42.378906 29.300781 C 42.246094 29.359375 41.644531 29.386719 41.007812 29.375 L 39.835938 29.332031 L 39.835938 32.195312 L 40.671875 32.195312 C 41.476562 32.195312 41.511719 32.164062 41.511719 31.125 C 41.511719 30.257812 41.609375 30.027344 42.046875 29.957031 C 43.21875 29.773438 43.6875 30.113281 43.785156 31.183594 C 43.886719 32.152344 43.921875 32.195312 44.691406 32.195312 C 45.492188 32.195312 45.527344 32.164062 45.527344 31.054688 C 45.527344 30.015625 45.425781 29.871094 44.691406 29.558594 C 43.921875 29.214844 42.882812 29.101562 42.378906 29.300781 Z M 42.378906 29.300781 "/>
<path style=" stroke:none;fill-rule:nonzero;fill:rgb(0%,0%,0%);fill-opacity:1;" d="M 48.90625 29.359375 C 47.636719 29.574219 47.234375 29.929688 47.199219 30.785156 C 47.199219 31.425781 47.335938 31.625 47.972656 31.867188 C 49.042969 32.277344 49.84375 32.363281 51.117188 32.179688 C 52.523438 31.996094 52.890625 31.695312 52.890625 30.785156 C 52.890625 29.871094 52.691406 29.65625 51.519531 29.414062 C 50.449219 29.171875 50.046875 29.160156 48.90625 29.359375 Z M 50.851562 30.113281 C 51.085938 30.226562 51.21875 30.554688 51.152344 30.855469 C 50.949219 31.894531 48.875 31.824219 48.875 30.785156 C 48.875 30.015625 49.945312 29.65625 50.851562 30.113281 Z M 50.851562 30.113281 "/>
<path style=" stroke:none;fill-rule:nonzero;fill:rgb(0%,0%,0%);fill-opacity:1;" d="M 65.714844 29.34375 C 64.171875 29.617188 65.109375 30.058594 66.984375 29.957031 C 68.15625 29.886719 68.289062 29.914062 68.289062 30.183594 C 68.289062 30.425781 68.089844 30.484375 67.117188 30.484375 C 65.578125 30.484375 64.140625 31.054688 64.441406 31.523438 C 64.808594 32.007812 65.480469 32.238281 66.515625 32.222656 C 67.019531 32.207031 68.089844 32.207031 68.894531 32.195312 L 70.300781 32.195312 L 70.300781 31.210938 C 70.300781 29.941406 69.964844 29.558594 68.59375 29.359375 C 67.351562 29.171875 66.71875 29.171875 65.714844 29.34375 Z M 68.289062 31.339844 C 68.289062 31.550781 68.054688 31.625 67.320312 31.625 C 66.785156 31.625 66.28125 31.539062 66.179688 31.425781 C 65.914062 31.152344 66.214844 31.054688 67.351562 31.054688 C 68.054688 31.054688 68.289062 31.125 68.289062 31.339844 Z M 68.289062 31.339844 "/>
<path style=" stroke:none;fill-rule:nonzero;fill:rgb(0%,0%,0%);fill-opacity:1;" d="M 74.683594 29.332031 C 74.417969 29.402344 73.714844 29.429688 73.078125 29.386719 L 71.972656 29.300781 L 71.972656 32.195312 L 73.949219 32.195312 L 74.046875 31.097656 C 74.148438 30.128906 74.25 29.984375 74.785156 29.941406 C 75.824219 29.859375 76.324219 30.3125 76.324219 31.296875 C 76.324219 32.164062 76.359375 32.195312 77.195312 32.195312 L 78.066406 32.195312 L 77.964844 30.96875 C 77.832031 29.886719 77.730469 29.714844 77.027344 29.472656 C 76.191406 29.171875 75.421875 29.132812 74.683594 29.332031 Z M 74.683594 29.332031 "/>
<path style=" stroke:none;fill-rule:nonzero;fill:rgb(0%,0%,0%);fill-opacity:1;" d="M 53.929688 29.515625 C 53.929688 29.617188 54.429688 30.242188 55.035156 30.910156 C 56.003906 31.953125 56.273438 32.121094 56.941406 32.121094 C 57.613281 32.121094 57.878906 31.964844 58.785156 30.910156 C 60.121094 29.429688 60.121094 29.34375 59.117188 29.34375 C 58.414062 29.34375 58.179688 29.457031 57.710938 30.128906 C 57.378906 30.554688 57.007812 30.910156 56.910156 30.910156 C 56.808594 30.910156 56.441406 30.554688 56.105469 30.128906 C 55.636719 29.457031 55.402344 29.34375 54.699219 29.34375 C 54.265625 29.34375 53.894531 29.429688 53.929688 29.515625 Z M 53.929688 29.515625 "/>
<path style=" stroke:none;fill-rule:nonzero;fill:rgb(0%,0%,0%);fill-opacity:1;" d="M 61.261719 30.769531 L 61.261719 32.195312 L 62.933594 32.195312 L 62.933594 29.34375 L 61.261719 29.34375 Z M 61.261719 30.769531 "/>
<path style=" stroke:none;fill-rule:nonzero;fill:rgb(0%,0%,0%);fill-opacity:1;" d="M 27.117188 32.605469 C 27.117188 32.679688 27.417969 32.707031 27.820312 32.664062 C 28.488281 32.578125 28.519531 32.621094 28.386719 33.460938 C 28.320312 34.160156 28.386719 34.332031 28.789062 34.332031 C 29.191406 34.332031 29.257812 34.160156 29.191406 33.460938 C 29.058594 32.621094 29.089844 32.578125 29.761719 32.664062 C 30.160156 32.707031 30.464844 32.679688 30.464844 32.605469 C 30.464844 32.535156 29.726562 32.480469 28.789062 32.480469 C 27.886719 32.480469 27.117188 32.535156 27.117188 32.605469 Z M 27.117188 32.605469 "/>
<path style=" stroke:none;fill-rule:nonzero;fill:rgb(0%,0%,0%);fill-opacity:1;" d="M 30.964844 33.40625 C 30.964844 34.046875 31.097656 34.332031 31.398438 34.332031 C 31.632812 34.332031 31.800781 34.132812 31.800781 33.832031 C 31.800781 33.460938 31.9375 33.332031 32.335938 33.332031 C 32.773438 33.332031 32.839844 33.449219 32.738281 33.832031 C 32.640625 34.171875 32.738281 34.332031 33.039062 34.332031 C 33.578125 34.332031 33.644531 33.460938 33.109375 33.234375 C 32.90625 33.148438 32.503906 33.105469 32.269531 33.148438 C 31.9375 33.207031 31.800781 33.105469 31.800781 32.847656 C 31.800781 32.648438 31.601562 32.480469 31.398438 32.480469 C 31.097656 32.480469 30.964844 32.761719 30.964844 33.40625 Z M 30.964844 33.40625 "/>
<path style=" stroke:none;fill-rule:nonzero;fill:rgb(0%,0%,0%);fill-opacity:1;" d="M 38.765625 33.40625 C 38.699219 34.171875 38.765625 34.332031 39.199219 34.332031 C 39.601562 34.332031 39.667969 34.230469 39.570312 33.902344 C 39.402344 33.363281 39.800781 33.363281 40.671875 33.902344 C 41.042969 34.132812 41.542969 34.332031 41.777344 34.332031 C 42.046875 34.332031 41.945312 34.171875 41.441406 33.890625 C 40.90625 33.5625 40.808594 33.417969 41.109375 33.375 C 41.308594 33.332031 41.511719 33.191406 41.511719 33.046875 C 41.511719 32.75 40.574219 32.480469 39.570312 32.480469 C 38.964844 32.480469 38.867188 32.59375 38.765625 33.40625 Z M 40.773438 33.019531 C 40.875 33.261719 40.707031 33.332031 40.203125 33.332031 C 39.667969 33.332031 39.5 33.246094 39.5 32.964844 C 39.5 32.492188 40.605469 32.535156 40.773438 33.019531 Z M 40.773438 33.019531 "/>
<path style=" stroke:none;fill-rule:nonzero;fill:rgb(0%,0%,0%);fill-opacity:1;" d="M 48.539062 33.40625 C 48.539062 34.046875 48.671875 34.332031 48.976562 34.332031 C 49.277344 34.332031 49.34375 34.074219 49.277344 33.40625 C 49.109375 32.207031 48.539062 32.207031 48.539062 33.40625 Z M 48.539062 33.40625 "/>
<path style=" stroke:none;fill-rule:nonzero;fill:rgb(0%,0%,0%);fill-opacity:1;" d="M 51.550781 32.605469 C 51.550781 32.679688 51.855469 32.707031 52.253906 32.664062 C 52.925781 32.578125 52.957031 32.621094 52.824219 33.460938 C 52.757812 34.160156 52.824219 34.332031 53.226562 34.332031 C 53.628906 34.332031 53.695312 34.160156 53.628906 33.460938 C 53.496094 32.621094 53.527344 32.578125 54.199219 32.664062 C 54.597656 32.707031 54.898438 32.679688 54.898438 32.605469 C 54.898438 32.535156 54.164062 32.480469 53.226562 32.480469 C 52.324219 32.480469 51.550781 32.535156 51.550781 32.605469 Z M 51.550781 32.605469 "/>
<path style=" stroke:none;fill-rule:nonzero;fill:rgb(0%,0%,0%);fill-opacity:1;" d="M 55.570312 33.40625 C 55.570312 34.046875 55.703125 34.332031 56.003906 34.332031 C 56.304688 34.332031 56.375 34.074219 56.304688 33.40625 C 56.140625 32.207031 55.570312 32.207031 55.570312 33.40625 Z M 55.570312 33.40625 "/>
<path style=" stroke:none;fill-rule:nonzero;fill:rgb(0%,0%,0%);fill-opacity:1;" d="M 35.449219 33.234375 C 35.820312 33.449219 35.820312 33.476562 35.382812 33.476562 C 35.117188 33.476562 34.816406 33.390625 34.714844 33.289062 C 34.648438 33.207031 34.445312 33.304688 34.3125 33.519531 C 34.011719 34.03125 34.78125 34.429688 35.71875 34.257812 C 36.253906 34.144531 36.253906 34.132812 35.585938 34.089844 C 35.183594 34.058594 34.78125 33.929688 34.679688 33.816406 C 34.546875 33.675781 34.78125 33.617188 35.484375 33.617188 C 36.691406 33.617188 36.789062 33.40625 35.753906 33.175781 C 35.050781 33.019531 35.015625 33.019531 35.449219 33.234375 Z M 35.449219 33.234375 "/>
<path style=" stroke:none;fill-rule:nonzero;fill:rgb(0%,0%,0%);fill-opacity:1;" d="M 44.085938 33.277344 C 44.1875 33.40625 44.054688 33.476562 43.6875 33.476562 C 43.351562 33.476562 43.21875 33.40625 43.382812 33.289062 C 43.519531 33.207031 43.351562 33.234375 43.015625 33.363281 C 42.480469 33.5625 42.449219 33.660156 42.78125 33.972656 C 43.015625 34.171875 43.453125 34.332031 43.820312 34.332031 C 44.757812 34.332031 45.023438 34.074219 44.121094 34.015625 C 43.050781 33.945312 42.949219 33.617188 43.988281 33.617188 C 44.925781 33.617188 45.191406 33.277344 44.390625 33.148438 C 44.054688 33.089844 43.953125 33.132812 44.085938 33.277344 Z M 44.085938 33.277344 "/>
<path style=" stroke:none;fill-rule:nonzero;fill:rgb(0%,0%,0%);fill-opacity:1;" d="M 45.863281 33.191406 C 45.59375 33.261719 45.492188 33.375 45.660156 33.433594 C 45.828125 33.488281 46.027344 33.460938 46.097656 33.363281 C 46.398438 33.019531 46.867188 33.207031 46.867188 33.675781 C 46.867188 33.945312 47.035156 34.214844 47.199219 34.257812 C 47.402344 34.316406 47.535156 34.117188 47.535156 33.789062 C 47.535156 33.40625 47.367188 33.191406 47 33.132812 C 46.363281 33.035156 46.464844 33.019531 45.863281 33.191406 Z M 45.863281 33.191406 "/>
<path style=" stroke:none;fill-rule:nonzero;fill:rgb(0%,0%,0%);fill-opacity:1;" d="M 56.84375 33.289062 C 57.042969 33.320312 57.242188 33.574219 57.242188 33.847656 C 57.242188 34.144531 57.410156 34.332031 57.679688 34.332031 C 57.980469 34.332031 58.046875 34.160156 57.980469 33.761719 C 57.878906 33.289062 57.710938 33.191406 57.109375 33.207031 C 56.742188 33.207031 56.609375 33.246094 56.84375 33.289062 Z M 56.84375 33.289062 "/>
<path style=" stroke:none;fill-rule:nonzero;fill:rgb(0%,0%,0%);fill-opacity:1;" d="M 58.851562 33.761719 C 58.917969 34.074219 59.152344 34.332031 59.386719 34.332031 C 59.621094 34.332031 59.722656 34.132812 59.652344 33.761719 C 59.585938 33.449219 59.351562 33.191406 59.117188 33.191406 C 58.882812 33.191406 58.785156 33.390625 58.851562 33.761719 Z M 58.851562 33.761719 "/>
<path style=" stroke:none;fill-rule:nonzero;fill:rgb(0%,0%,0%);fill-opacity:1;" d="M 60.421875 33.761719 C 60.421875 34.074219 60.589844 34.332031 60.757812 34.332031 C 60.960938 34.332031 61.09375 34.117188 61.09375 33.875 C 61.09375 33.53125 61.261719 33.390625 61.730469 33.363281 C 62.265625 33.320312 62.332031 33.375 62.199219 33.816406 C 62.132812 34.132812 62.199219 34.332031 62.433594 34.332031 C 62.632812 34.332031 62.734375 34.101562 62.667969 33.761719 C 62.53125 33.234375 62.464844 33.191406 61.460938 33.191406 C 60.457031 33.191406 60.421875 33.21875 60.421875 33.761719 Z M 60.421875 33.761719 "/>
<path style=" stroke:none;fill-rule:nonzero;fill:rgb(0%,0%,0%);fill-opacity:1;" d="M 63.804688 33.304688 C 63.703125 33.363281 63.671875 33.617188 63.738281 33.847656 C 63.804688 34.160156 64.039062 34.273438 64.640625 34.300781 C 65.746094 34.375 66.179688 34.585938 65.445312 34.699219 C 65.109375 34.757812 64.542969 34.730469 64.207031 34.628906 C 63.671875 34.488281 63.570312 34.488281 63.671875 34.644531 C 63.871094 34.914062 65.410156 34.957031 65.914062 34.699219 C 66.449219 34.414062 66.113281 34.1875 65.144531 34.1875 C 64.507812 34.1875 64.375 34.101562 64.339844 33.746094 C 64.308594 33.261719 64.105469 33.089844 63.804688 33.304688 Z M 63.804688 33.304688 "/>
<path style=" stroke:none;fill-rule:nonzero;fill:rgb(0%,0%,0%);fill-opacity:1;" d="M 65.277344 33.5625 C 65.277344 33.960938 65.78125 33.917969 66.046875 33.476562 C 66.148438 33.289062 66.046875 33.191406 65.746094 33.191406 C 65.480469 33.191406 65.277344 33.332031 65.277344 33.5625 Z M 65.277344 33.5625 "/>
<path style=" stroke:none;fill-rule:nonzero;fill:rgb(0%,0%,0%);fill-opacity:1;" d="M 45.960938 33.71875 C 45.328125 33.816406 45.425781 34.332031 46.0625 34.332031 C 46.496094 34.332031 46.53125 34.289062 46.230469 34.144531 C 45.960938 34.003906 45.996094 33.902344 46.261719 33.789062 C 46.699219 33.605469 46.632812 33.589844 45.960938 33.71875 Z M 45.960938 33.71875 "/>
<path style=" stroke:none;fill-rule:nonzero;fill:rgb(0%,0%,0%);fill-opacity:1;" d="M 66.953125 34.1875 C 66.953125 34.257812 67.117188 34.332031 67.285156 34.332031 C 67.488281 34.332031 67.621094 34.257812 67.621094 34.1875 C 67.621094 34.101562 67.488281 34.046875 67.285156 34.046875 C 67.117188 34.046875 66.953125 34.101562 66.953125 34.1875 Z M 66.953125 34.1875 "/>
</g>
</svg>
